<?xml version="1.0" encoding="UTF-8"?>
<svg xmlns="http://www.w3.org/2000/svg" xmlns:xlink="http://www.w3.org/1999/xlink" width="448px" height="160px" viewBox="0 0 448 160" version="1.1">
<defs>
<clipPath id="clip1">
  <path d="M 1.777344 35.40625 L 116 35.40625 L 116 146.898438 L 1.777344 146.898438 Z M 1.777344 35.40625 "/>
</clipPath>
<clipPath id="clip2">
  <path d="M 352 1.777344 L 446 1.777344 L 446 84 L 352 84 Z M 352 1.777344 "/>
</clipPath>
<clipPath id="clip3">
  <path d="M 352 1.777344 L 446.222656 1.777344 L 446.222656 100 L 352 100 Z M 352 1.777344 "/>
</clipPath>
</defs>
<g id="surface1">
<path style=" stroke:none;fill-rule:nonzero;fill:rgb(31.764707%,18.039216%,56.078434%);fill-opacity:1;" d="M 169.097656 129.453125 C 150.015625 129.453125 134.542969 113.242188 134.542969 93.25 C 134.542969 73.242188 150.015625 57.035156 169.097656 57.035156 C 188.179688 57.035156 203.640625 73.242188 203.640625 93.25 C 203.640625 102.339844 200.441406 110.644531 195.160156 117 L 181.414062 99.59375 C 180.164062 99.59375 178.691406 99.742188 177.03125 100.042969 C 175.359375 100.328125 173.792969 100.859375 172.324219 101.605469 C 170.867188 102.355469 169.640625 103.375 168.636719 104.667969 C 167.628906 105.976562 167.136719 107.621094 167.136719 109.621094 C 167.136719 111.050781 167.65625 112.546875 168.691406 114.140625 C 169.738281 115.71875 170.851562 117.269531 172.011719 118.769531 L 179.101562 127.902344 C 175.929688 128.90625 172.582031 129.453125 169.097656 129.453125 M 225.703125 93.304688 C 225.703125 62.125 200.359375 36.835938 169.097656 36.835938 C 137.835938 36.835938 112.480469 62.125 112.480469 93.304688 C 112.480469 124.5 137.835938 149.773438 169.097656 149.773438 C 177.34375 149.773438 185.171875 148.003906 192.222656 144.84375 L 198.847656 153.378906 C 198.847656 153.378906 207.601562 164.484375 220.789062 149.484375 L 208.457031 133.863281 C 219.085938 123.601562 225.703125 109.226562 225.703125 93.304688 "/>
<g clip-path="url(#clip1)" clip-rule="nonzero">
<path style=" stroke:none;fill-rule:nonzero;fill:rgb(31.764707%,18.039216%,56.078434%);fill-opacity:1;" d="M 67.171875 38.007812 C 62.886719 35.503906 59.0625 35.339844 56.421875 35.734375 C 56.421875 35.734375 50.460938 36.59375 46.472656 38.648438 C 36.671875 58.84375 1.777344 146.832031 1.777344 146.832031 L 23.675781 146.832031 C 35.476562 112.414062 57.972656 61.199219 57.972656 61.199219 C 58.914062 62.054688 66.21875 80.59375 73.789062 100.191406 L 46.40625 100.191406 C 42.8125 119.84375 56.964844 119.828125 56.964844 119.828125 L 81.230469 119.613281 C 87.003906 134.734375 91.5625 146.832031 91.5625 146.832031 L 115.132812 146.832031 C 82.988281 61.117188 72.183594 43.273438 72.183594 43.273438 C 72.183594 43.273438 70.386719 39.914062 67.171875 38.007812 "/>
</g>
<path style=" stroke:none;fill-rule:nonzero;fill:rgb(31.764707%,18.039216%,56.078434%);fill-opacity:1;" d="M 338.554688 146.832031 C 306.40625 61.117188 295.601562 43.273438 295.601562 43.273438 C 295.601562 43.273438 293.804688 39.925781 290.59375 38.007812 C 286.304688 35.503906 282.480469 35.339844 279.855469 35.734375 C 279.855469 35.734375 273.878906 36.59375 269.894531 38.648438 C 260.09375 58.832031 225.199219 146.832031 225.199219 146.832031 L 247.097656 146.832031 C 258.910156 112.414062 281.394531 61.199219 281.394531 61.199219 C 282.332031 62.054688 289.640625 80.59375 297.207031 100.191406 L 269.839844 100.191406 C 266.230469 119.84375 280.371094 119.828125 280.371094 119.828125 L 304.652344 119.613281 C 310.421875 134.734375 314.980469 146.832031 314.980469 146.832031 Z M 338.554688 146.832031 "/>
<g clip-path="url(#clip2)" clip-rule="nonzero">
<path style=" stroke:none;fill-rule:nonzero;fill:rgb(88.235295%,6.666667%,29.803923%);fill-opacity:1;" d="M 368.414062 1.777344 C 359.828125 1.777344 352.886719 9.074219 352.886719 18.082031 L 352.871094 83.207031 C 355.949219 76.699219 361.226562 65.8125 366.632812 55.984375 C 386.515625 15.304688 412.769531 19.648438 430.257812 15.238281 C 437.796875 13.332031 443.554688 4.949219 445.5 1.777344 Z M 368.414062 1.777344 "/>
</g>
<g clip-path="url(#clip3)" clip-rule="nonzero">
<path style=" stroke:none;fill-rule:nonzero;fill:rgb(88.235295%,6.666667%,29.803923%);fill-opacity:1;" d="M 438.421875 43.765625 C 435.046875 52.285156 428.324219 64.765625 412.292969 72.890625 C 403.746094 77.21875 391.128906 77.175781 380.621094 76.046875 C 368.726562 75.269531 360.820312 76.15625 356.042969 88.921875 C 354.574219 93.03125 352.871094 99.753906 352.871094 99.753906 L 430.652344 99.753906 C 439.226562 99.753906 446.179688 92.445312 446.179688 83.4375 L 446.222656 1.777344 L 446.195312 1.777344 C 446.03125 8.039062 445.011719 27.121094 438.421875 43.765625 "/>
</g>
</g>
</svg>
